<mxfile host="app.diagrams.net" modified="2024-03-28T17:46:50.960Z" agent="Mozilla/5.0 (Macintosh; Intel Mac OS X 10_15_7) AppleWebKit/537.36 (KHTML, like Gecko) Chrome/123.0.0.0 Safari/537.36" etag="8z-lZbr53jhN071I1bCZ" version="24.0.7" type="device">
  <diagram name="Page-1" id="frzVCbP_LwHvZKvPpUY1">
    <mxGraphModel dx="1482" dy="724" grid="1" gridSize="10" guides="1" tooltips="1" connect="1" arrows="1" fold="1" page="1" pageScale="1" pageWidth="850" pageHeight="1100" math="0" shadow="0">
      <root>
        <mxCell id="0" />
        <mxCell id="1" parent="0" />
        <mxCell id="-RBaUOCJ5WtbOFzxzAuj-6" value="" style="rounded=0;whiteSpace=wrap;html=1;" vertex="1" parent="1">
          <mxGeometry x="250" y="20" width="240" height="700" as="geometry" />
        </mxCell>
        <mxCell id="-RBaUOCJ5WtbOFzxzAuj-1" value="admin" style="shape=umlActor;verticalLabelPosition=bottom;verticalAlign=top;html=1;outlineConnect=0;" vertex="1" parent="1">
          <mxGeometry x="150" y="310" width="30" height="60" as="geometry" />
        </mxCell>
        <mxCell id="-RBaUOCJ5WtbOFzxzAuj-2" value="farmer" style="shape=umlActor;verticalLabelPosition=bottom;verticalAlign=top;html=1;outlineConnect=0;" vertex="1" parent="1">
          <mxGeometry x="680" y="350" width="30" height="60" as="geometry" />
        </mxCell>
        <mxCell id="-RBaUOCJ5WtbOFzxzAuj-3" value="CRUD on equipments" style="ellipse;whiteSpace=wrap;html=1;" vertex="1" parent="1">
          <mxGeometry x="290" y="220" width="140" height="90" as="geometry" />
        </mxCell>
        <mxCell id="-RBaUOCJ5WtbOFzxzAuj-7" value="CRUD on plant types" style="ellipse;whiteSpace=wrap;html=1;" vertex="1" parent="1">
          <mxGeometry x="290" y="420" width="140" height="90" as="geometry" />
        </mxCell>
        <mxCell id="-RBaUOCJ5WtbOFzxzAuj-8" value="CRUD on users" style="ellipse;whiteSpace=wrap;html=1;" vertex="1" parent="1">
          <mxGeometry x="285" y="120" width="140" height="90" as="geometry" />
        </mxCell>
        <mxCell id="-RBaUOCJ5WtbOFzxzAuj-11" value="CRUD on crops" style="ellipse;whiteSpace=wrap;html=1;" vertex="1" parent="1">
          <mxGeometry x="290" y="320" width="140" height="90" as="geometry" />
        </mxCell>
        <mxCell id="-RBaUOCJ5WtbOFzxzAuj-12" value="CRUD on finances" style="ellipse;whiteSpace=wrap;html=1;" vertex="1" parent="1">
          <mxGeometry x="290" y="520" width="140" height="90" as="geometry" />
        </mxCell>
        <mxCell id="-RBaUOCJ5WtbOFzxzAuj-13" value="CRUD on notifications" style="ellipse;whiteSpace=wrap;html=1;" vertex="1" parent="1">
          <mxGeometry x="290" y="610" width="140" height="90" as="geometry" />
        </mxCell>
        <mxCell id="-RBaUOCJ5WtbOFzxzAuj-14" value="" style="endArrow=none;html=1;rounded=0;exitX=0.5;exitY=0.5;exitDx=0;exitDy=0;exitPerimeter=0;entryX=0;entryY=0.5;entryDx=0;entryDy=0;" edge="1" parent="1" source="-RBaUOCJ5WtbOFzxzAuj-1" target="-RBaUOCJ5WtbOFzxzAuj-3">
          <mxGeometry width="50" height="50" relative="1" as="geometry">
            <mxPoint x="400" y="430" as="sourcePoint" />
            <mxPoint x="450" y="380" as="targetPoint" />
          </mxGeometry>
        </mxCell>
        <mxCell id="-RBaUOCJ5WtbOFzxzAuj-15" value="" style="endArrow=none;html=1;rounded=0;exitX=0.5;exitY=0.5;exitDx=0;exitDy=0;exitPerimeter=0;entryX=0;entryY=0.5;entryDx=0;entryDy=0;" edge="1" parent="1" source="-RBaUOCJ5WtbOFzxzAuj-1" target="-RBaUOCJ5WtbOFzxzAuj-8">
          <mxGeometry width="50" height="50" relative="1" as="geometry">
            <mxPoint x="400" y="430" as="sourcePoint" />
            <mxPoint x="450" y="380" as="targetPoint" />
          </mxGeometry>
        </mxCell>
        <mxCell id="-RBaUOCJ5WtbOFzxzAuj-16" value="" style="endArrow=none;html=1;rounded=0;exitX=0.5;exitY=0.5;exitDx=0;exitDy=0;exitPerimeter=0;entryX=0;entryY=0.5;entryDx=0;entryDy=0;" edge="1" parent="1" source="-RBaUOCJ5WtbOFzxzAuj-1" target="-RBaUOCJ5WtbOFzxzAuj-11">
          <mxGeometry width="50" height="50" relative="1" as="geometry">
            <mxPoint x="400" y="430" as="sourcePoint" />
            <mxPoint x="450" y="380" as="targetPoint" />
          </mxGeometry>
        </mxCell>
        <mxCell id="-RBaUOCJ5WtbOFzxzAuj-17" value="" style="endArrow=none;html=1;rounded=0;exitX=0.5;exitY=0.5;exitDx=0;exitDy=0;exitPerimeter=0;entryX=0;entryY=0.5;entryDx=0;entryDy=0;" edge="1" parent="1" source="-RBaUOCJ5WtbOFzxzAuj-1" target="-RBaUOCJ5WtbOFzxzAuj-7">
          <mxGeometry width="50" height="50" relative="1" as="geometry">
            <mxPoint x="400" y="430" as="sourcePoint" />
            <mxPoint x="450" y="380" as="targetPoint" />
          </mxGeometry>
        </mxCell>
        <mxCell id="-RBaUOCJ5WtbOFzxzAuj-18" value="" style="endArrow=none;html=1;rounded=0;exitX=0.5;exitY=0.5;exitDx=0;exitDy=0;exitPerimeter=0;entryX=0;entryY=0.5;entryDx=0;entryDy=0;" edge="1" parent="1" source="-RBaUOCJ5WtbOFzxzAuj-1" target="-RBaUOCJ5WtbOFzxzAuj-12">
          <mxGeometry width="50" height="50" relative="1" as="geometry">
            <mxPoint x="400" y="430" as="sourcePoint" />
            <mxPoint x="450" y="380" as="targetPoint" />
          </mxGeometry>
        </mxCell>
        <mxCell id="-RBaUOCJ5WtbOFzxzAuj-19" value="" style="endArrow=none;html=1;rounded=0;exitX=0.5;exitY=0.5;exitDx=0;exitDy=0;exitPerimeter=0;entryX=0;entryY=0.5;entryDx=0;entryDy=0;" edge="1" parent="1" source="-RBaUOCJ5WtbOFzxzAuj-1" target="-RBaUOCJ5WtbOFzxzAuj-13">
          <mxGeometry width="50" height="50" relative="1" as="geometry">
            <mxPoint x="400" y="430" as="sourcePoint" />
            <mxPoint x="450" y="380" as="targetPoint" />
          </mxGeometry>
        </mxCell>
        <mxCell id="-RBaUOCJ5WtbOFzxzAuj-20" value="" style="endArrow=none;html=1;rounded=0;entryX=0.5;entryY=0.5;entryDx=0;entryDy=0;entryPerimeter=0;exitX=1;exitY=0.5;exitDx=0;exitDy=0;" edge="1" parent="1" source="-RBaUOCJ5WtbOFzxzAuj-11" target="-RBaUOCJ5WtbOFzxzAuj-2">
          <mxGeometry width="50" height="50" relative="1" as="geometry">
            <mxPoint x="400" y="430" as="sourcePoint" />
            <mxPoint x="450" y="380" as="targetPoint" />
          </mxGeometry>
        </mxCell>
        <mxCell id="-RBaUOCJ5WtbOFzxzAuj-21" value="" style="endArrow=none;html=1;rounded=0;entryX=0.5;entryY=0.5;entryDx=0;entryDy=0;entryPerimeter=0;exitX=1;exitY=0.5;exitDx=0;exitDy=0;" edge="1" parent="1" source="-RBaUOCJ5WtbOFzxzAuj-3" target="-RBaUOCJ5WtbOFzxzAuj-2">
          <mxGeometry width="50" height="50" relative="1" as="geometry">
            <mxPoint x="400" y="430" as="sourcePoint" />
            <mxPoint x="450" y="380" as="targetPoint" />
          </mxGeometry>
        </mxCell>
        <mxCell id="-RBaUOCJ5WtbOFzxzAuj-22" value="" style="endArrow=none;html=1;rounded=0;entryX=0.5;entryY=0.5;entryDx=0;entryDy=0;entryPerimeter=0;exitX=1;exitY=0.5;exitDx=0;exitDy=0;" edge="1" parent="1" source="-RBaUOCJ5WtbOFzxzAuj-12" target="-RBaUOCJ5WtbOFzxzAuj-2">
          <mxGeometry width="50" height="50" relative="1" as="geometry">
            <mxPoint x="400" y="430" as="sourcePoint" />
            <mxPoint x="450" y="380" as="targetPoint" />
          </mxGeometry>
        </mxCell>
        <mxCell id="-RBaUOCJ5WtbOFzxzAuj-24" value="CRUD on farms" style="ellipse;whiteSpace=wrap;html=1;" vertex="1" parent="1">
          <mxGeometry x="290" y="20" width="140" height="90" as="geometry" />
        </mxCell>
        <mxCell id="-RBaUOCJ5WtbOFzxzAuj-25" value="" style="endArrow=none;html=1;rounded=0;entryX=0.5;entryY=0.5;entryDx=0;entryDy=0;entryPerimeter=0;exitX=1;exitY=0.5;exitDx=0;exitDy=0;" edge="1" parent="1" source="-RBaUOCJ5WtbOFzxzAuj-24" target="-RBaUOCJ5WtbOFzxzAuj-2">
          <mxGeometry width="50" height="50" relative="1" as="geometry">
            <mxPoint x="400" y="320" as="sourcePoint" />
            <mxPoint x="450" y="270" as="targetPoint" />
          </mxGeometry>
        </mxCell>
        <mxCell id="-RBaUOCJ5WtbOFzxzAuj-26" value="" style="endArrow=none;html=1;rounded=0;exitX=0.5;exitY=0.5;exitDx=0;exitDy=0;exitPerimeter=0;entryX=0;entryY=0.5;entryDx=0;entryDy=0;" edge="1" parent="1" source="-RBaUOCJ5WtbOFzxzAuj-1" target="-RBaUOCJ5WtbOFzxzAuj-24">
          <mxGeometry width="50" height="50" relative="1" as="geometry">
            <mxPoint x="400" y="320" as="sourcePoint" />
            <mxPoint x="450" y="270" as="targetPoint" />
          </mxGeometry>
        </mxCell>
      </root>
    </mxGraphModel>
  </diagram>
</mxfile>
